<svg width="17" height="16" viewBox="0 0 17 16" fill="none" xmlns="http://www.w3.org/2000/svg">
<path d="M8.17969 7.5L8.20702 7.48667C8.29251 7.44396 8.38844 7.42664 8.48346 7.43677C8.57849 7.4469 8.66862 7.48404 8.74318 7.54381C8.81775 7.60357 8.87363 7.68345 8.9042 7.77399C8.93477 7.86453 8.93876 7.96193 8.91569 8.05467L8.44369 9.94533C8.42045 10.0381 8.42431 10.1356 8.45482 10.2263C8.48532 10.3169 8.54118 10.3969 8.61578 10.4568C8.69038 10.5166 8.78058 10.5538 8.87568 10.564C8.97079 10.5741 9.06681 10.5568 9.15235 10.514L9.17969 10.5M14.6797 8C14.6797 8.78793 14.5245 9.56815 14.223 10.2961C13.9214 11.0241 13.4795 11.6855 12.9223 12.2426C12.3652 12.7998 11.7037 13.2417 10.9758 13.5433C10.2478 13.8448 9.46762 14 8.67969 14C7.89176 14 7.11154 13.8448 6.38359 13.5433C5.65563 13.2417 4.9942 12.7998 4.43705 12.2426C3.8799 11.6855 3.43794 11.0241 3.13641 10.2961C2.83488 9.56815 2.67969 8.78793 2.67969 8C2.67969 6.4087 3.31183 4.88258 4.43705 3.75736C5.56227 2.63214 7.08839 2 8.67969 2C10.271 2 11.7971 2.63214 12.9223 3.75736C14.0475 4.88258 14.6797 6.4087 14.6797 8ZM8.67969 5.5H8.68502V5.50533H8.67969V5.5Z" stroke="#A1A1A1" stroke-linecap="round" stroke-linejoin="round"/>
</svg>
