<svg width="17" height="16" viewBox="0 0 17 16" fill="none" xmlns="http://www.w3.org/2000/svg">
<path d="M10.7429 11.388C11.985 11.2409 13.2055 10.9478 14.3789 10.5147C13.3851 9.41387 12.836 7.983 12.8382 6.5V6C12.8382 4.93913 12.4168 3.92172 11.6666 3.17157C10.9165 2.42143 9.89907 2 8.83821 2C7.77734 2 6.75993 2.42143 6.00978 3.17157C5.25964 3.92172 4.83821 4.93913 4.83821 6V6.5C4.84022 7.98309 4.29087 9.41397 3.29688 10.5147C4.45221 10.9413 5.67021 11.238 6.93354 11.388M10.7429 11.388C9.47753 11.5381 8.19888 11.5381 6.93354 11.388M10.7429 11.388C10.8389 11.6879 10.8628 12.0063 10.8126 12.3171C10.7624 12.628 10.6394 12.9227 10.4538 13.1771C10.2682 13.4314 10.0251 13.6384 9.74434 13.7811C9.46359 13.9238 9.15313 13.9981 8.83821 13.9981C8.52329 13.9981 8.21282 13.9238 7.93208 13.7811C7.65134 13.6384 7.40826 13.4314 7.22262 13.1771C7.03699 12.9227 6.91405 12.628 6.86382 12.3171C6.81358 12.0063 6.83747 11.6879 6.93354 11.388" stroke="#737373" stroke-linecap="round" stroke-linejoin="round"/>
</svg>
