<svg width="21" height="21" viewBox="0 0 21 21" fill="none" xmlns="http://www.w3.org/2000/svg">
<path d="M6.42578 2.85938V4.73437M15.1758 2.85938V4.73437M3.30078 15.9844V6.60937C3.30078 6.11209 3.49833 5.63518 3.84996 5.28355C4.20159 4.93192 4.6785 4.73437 5.17578 4.73437H16.4258C16.9231 4.73437 17.4 4.93192 17.7516 5.28355C18.1032 5.63518 18.3008 6.11209 18.3008 6.60937V15.9844M3.30078 15.9844C3.30078 16.4817 3.49833 16.9586 3.84996 17.3102C4.20159 17.6618 4.6785 17.8594 5.17578 17.8594H16.4258C16.9231 17.8594 17.4 17.6618 17.7516 17.3102C18.1032 16.9586 18.3008 16.4817 18.3008 15.9844M3.30078 15.9844V9.73437C3.30078 9.23709 3.49833 8.76018 3.84996 8.40855C4.20159 8.05692 4.6785 7.85937 5.17578 7.85937H16.4258C16.9231 7.85937 17.4 8.05692 17.7516 8.40855C18.1032 8.76018 18.3008 9.23709 18.3008 9.73437V15.9844" stroke="#FAFAFA" stroke-width="1.25" stroke-linecap="round" stroke-linejoin="round"/>
</svg>
