<svg width="49" height="49" viewBox="0 0 49 49" fill="none" xmlns="http://www.w3.org/2000/svg">
<path fill-rule="evenodd" clip-rule="evenodd" d="M9.20022 20.09C9.19882 17.2997 10.1699 14.5961 11.9463 12.4443C13.7227 10.2925 16.1935 8.82705 18.9336 8.30001C21.6737 7.77296 24.5119 8.21729 26.9598 9.55655C29.4077 10.8958 31.3124 13.0463 32.3462 15.638C33.4936 15.5063 34.6559 15.6413 35.7425 16.0326C36.8291 16.4239 37.8107 17.0608 38.6108 17.8937C39.4108 18.7266 40.0076 19.7331 40.3548 20.8346C40.702 21.9361 40.7901 23.1029 40.6122 24.244C42.3474 25.2191 43.7104 26.742 44.488 28.5742C45.2655 30.4065 45.4138 32.4448 44.9095 34.3702C44.4052 36.2957 43.2768 37.9997 41.701 39.2156C40.1251 40.4315 38.1906 41.0907 36.2002 41.09H13.7002C11.3116 41.0911 8.99389 40.2778 7.12979 38.7842C5.26568 37.2905 3.96656 35.206 3.44686 32.8745C2.92715 30.5431 3.21792 28.1041 4.27118 25.9602C5.32444 23.8163 7.07722 22.0955 9.24022 21.082C9.21337 20.7521 9.20003 20.4211 9.20022 20.09Z" fill="white"/>
</svg>
