<svg width="32" height="32" viewBox="0 0 32 32" fill="none" xmlns="http://www.w3.org/2000/svg">
<rect width="32" height="32" rx="10" fill="url(#paint0_linear_3_8686)"/>
<path d="M7.875 18.5001C7.875 19.4946 8.27009 20.4484 8.97335 21.1517C9.67661 21.855 10.6304 22.2501 11.625 22.2501H21C21.7315 22.2508 22.4401 21.995 23.0024 21.527C23.5647 21.0591 23.945 20.4087 24.077 19.6892C24.2091 18.9697 24.0846 18.2267 23.7251 17.5896C23.3657 16.9524 22.7941 16.4616 22.11 16.2026C22.2646 15.7628 22.2932 15.2885 22.1925 14.8333C22.0918 14.3781 21.8658 13.9601 21.5401 13.6266C21.2144 13.2931 20.8019 13.0573 20.3492 12.9458C19.8965 12.8344 19.4217 12.8517 18.9783 12.9959C18.6916 11.8959 17.988 10.9507 17.0165 10.3605C16.045 9.77025 14.8819 9.58131 13.7735 9.83368C12.6651 10.0861 11.6985 10.7599 11.0783 11.7126C10.4581 12.6652 10.2331 13.8219 10.4508 14.9376C9.70132 15.1849 9.04891 15.6624 8.58645 16.302C8.12399 16.9416 7.87503 17.7108 7.875 18.5001Z" stroke="white" stroke-width="1.25" stroke-linecap="round" stroke-linejoin="round"/>
<defs>
<linearGradient id="paint0_linear_3_8686" x1="0" y1="0" x2="32" y2="32" gradientUnits="userSpaceOnUse">
<stop stop-color="#FAFAFA"/>
<stop offset="1" stop-color="#262626"/>
</linearGradient>
</defs>
</svg>
