<svg width="20" height="21" viewBox="0 0 20 21" fill="none" xmlns="http://www.w3.org/2000/svg">
<path d="M9.375 9.91504L9.40917 9.89837C9.51602 9.84499 9.63594 9.82334 9.75472 9.836C9.8735 9.84866 9.98616 9.89509 10.0794 9.9698C10.1726 10.0445 10.2424 10.1444 10.2806 10.2575C10.3189 10.3707 10.3238 10.4925 10.295 10.6084L9.705 12.9717C9.67595 13.0877 9.68078 13.2096 9.71891 13.3229C9.75704 13.4362 9.82687 13.5362 9.92011 13.611C10.0134 13.6858 10.1261 13.7323 10.245 13.745C10.3639 13.7577 10.4839 13.736 10.5908 13.6825L10.625 13.665M17.5 10.54C17.5 11.525 17.306 12.5002 16.9291 13.4102C16.5522 14.3201 15.9997 15.1469 15.3033 15.8433C14.6069 16.5398 13.7801 17.0922 12.8701 17.4691C11.9602 17.846 10.9849 18.04 10 18.04C9.01509 18.04 8.03982 17.846 7.12987 17.4691C6.21993 17.0922 5.39314 16.5398 4.6967 15.8433C4.00026 15.1469 3.44781 14.3201 3.0709 13.4102C2.69399 12.5002 2.5 11.525 2.5 10.54C2.5 8.55092 3.29018 6.64326 4.6967 5.23674C6.10322 3.83022 8.01088 3.04004 10 3.04004C11.9891 3.04004 13.8968 3.83022 15.3033 5.23674C16.7098 6.64326 17.5 8.55092 17.5 10.54ZM10 7.41504H10.0067V7.42171H10V7.41504Z" stroke="#2B7FFF" stroke-width="1.25" stroke-linecap="round" stroke-linejoin="round"/>
</svg>
