<svg width="20" height="21" viewBox="0 0 20 21" fill="none" xmlns="http://www.w3.org/2000/svg">
<path d="M12.5 9.54004C12.5 10.2031 12.2366 10.839 11.7678 11.3078C11.2989 11.7766 10.663 12.04 10 12.04C9.33696 12.04 8.70107 11.7766 8.23223 11.3078C7.76339 10.839 7.5 10.2031 7.5 9.54004C7.5 8.877 7.76339 8.24111 8.23223 7.77227C8.70107 7.30343 9.33696 7.04004 10 7.04004C10.663 7.04004 11.2989 7.30343 11.7678 7.77227C12.2366 8.24111 12.5 8.877 12.5 9.54004Z" stroke="#A1A1A1" stroke-width="1.25" stroke-linecap="round" stroke-linejoin="round"/>
<path d="M16.25 9.54004C16.25 15.4917 10 18.915 10 18.915C10 18.915 3.75 15.4917 3.75 9.54004C3.75 7.88244 4.40848 6.29272 5.58058 5.12062C6.75268 3.94852 8.3424 3.29004 10 3.29004C11.6576 3.29004 13.2473 3.94852 14.4194 5.12062C15.5915 6.29272 16.25 7.88244 16.25 9.54004Z" stroke="#A1A1A1" stroke-width="1.25" stroke-linecap="round" stroke-linejoin="round"/>
</svg>
