<svg width="81" height="81" viewBox="0 0 81 81" fill="none" xmlns="http://www.w3.org/2000/svg">
<rect x="0.601562" y="0.800781" width="80" height="80" rx="16" fill="url(#paint0_linear_3_17331)"/>
<path d="M51.6019 54.8008H34.6019C32.0056 54.8001 29.4607 54.0775 27.2514 52.7137C25.0422 51.3499 23.2557 49.3987 22.0916 47.078C20.9275 44.7573 20.4317 42.1587 20.6595 39.5724C20.8873 36.9862 21.8297 34.5142 23.3816 32.4327C24.9334 30.3513 27.0335 28.7424 29.4471 27.7858C31.8607 26.8291 34.4928 26.5625 37.0492 27.0157C39.6056 27.4689 41.9856 28.624 43.9233 30.352C45.8611 32.08 47.2801 34.3127 48.0219 36.8008H51.6019C53.9888 36.8008 56.278 37.749 57.9658 39.4368C59.6537 41.1247 60.6019 43.4138 60.6019 45.8008C60.6019 48.1877 59.6537 50.4769 57.9658 52.1647C56.278 53.8526 53.9888 54.8008 51.6019 54.8008Z" stroke="white" stroke-width="4" stroke-linecap="round" stroke-linejoin="round"/>
<defs>
<linearGradient id="paint0_linear_3_17331" x1="0.601562" y1="0.800781" x2="80.6016" y2="80.8008" gradientUnits="userSpaceOnUse">
<stop stop-color="#2B7FFF"/>
<stop offset="1" stop-color="#00C950"/>
</linearGradient>
</defs>
</svg>
