<svg width="20" height="20" viewBox="0 0 20 20" fill="none" xmlns="http://www.w3.org/2000/svg">
<path d="M1.875 12.5002C1.875 13.4947 2.27009 14.4486 2.97335 15.1518C3.67661 15.8551 4.63044 16.2502 5.625 16.2502H15C15.7315 16.251 16.4401 15.9951 17.0024 15.5272C17.5647 15.0592 17.945 14.4088 18.077 13.6893C18.2091 12.9698 18.0846 12.2268 17.7251 11.5897C17.3657 10.9526 16.7941 10.4617 16.11 10.2027C16.2646 9.76287 16.2932 9.28859 16.1925 8.8334C16.0918 8.37821 15.8658 7.96024 15.5401 7.62671C15.2144 7.29318 14.8019 7.05738 14.3492 6.94593C13.8965 6.83448 13.4217 6.85183 12.9783 6.99601C12.6916 5.89603 11.988 4.95084 11.0165 4.36061C10.045 3.77037 8.88189 3.58143 7.77351 3.83381C6.66514 4.08618 5.69851 4.76004 5.07832 5.71269C4.45813 6.66535 4.23308 7.82199 4.45083 8.93768C3.70132 9.18505 3.04891 9.66251 2.58645 10.3021C2.12399 10.9417 1.87503 11.7109 1.875 12.5002Z" stroke="white" stroke-width="1.25" stroke-linecap="round" stroke-linejoin="round"/>
</svg>
