<svg width="14" height="14" viewBox="0 0 14 14" fill="none" xmlns="http://www.w3.org/2000/svg">
<path d="M4.94141 3.49903V8.99903M8.94141 4.99903V10.499M9.27674 12.831L12.5267 11.2064C12.7807 11.0797 12.9414 10.8197 12.9414 10.5357V2.21237C12.9414 1.65503 12.3547 1.29237 11.8561 1.5417L9.27674 2.83103C9.06541 2.93703 8.81674 2.93703 8.60607 2.83103L5.27674 1.16703C5.17262 1.11499 5.05781 1.08789 4.94141 1.08789C4.825 1.08789 4.71019 1.11499 4.60607 1.16703L1.35607 2.7917C1.10141 2.91903 0.941406 3.17903 0.941406 3.46237V11.7857C0.941406 12.343 1.52807 12.7057 2.02674 12.4564L4.60607 11.167C4.81741 11.061 5.06607 11.061 5.27674 11.167L8.60607 12.8317C8.81741 12.937 9.06607 12.937 9.27674 12.8317V12.831Z" stroke="#A1A1A1" stroke-linecap="round" stroke-linejoin="round"/>
</svg>
