<svg width="17" height="16" viewBox="0 0 17 16" fill="none" xmlns="http://www.w3.org/2000/svg">
<path d="M1.86328 10.0009C1.86328 10.7966 2.17935 11.5596 2.74196 12.1222C3.30457 12.6849 4.06763 13.0009 4.86328 13.0009H12.3633C12.9485 13.0016 13.5154 12.7969 13.9652 12.4225C14.415 12.0482 14.7193 11.5279 14.8249 10.9523C14.9306 10.3767 14.8309 9.78223 14.5434 9.27253C14.2558 8.76283 13.7986 8.37016 13.2513 8.16293C13.375 7.81108 13.3979 7.43165 13.3173 7.0675C13.2367 6.70335 13.0559 6.36898 12.7954 6.10215C12.5348 5.83533 12.2048 5.64668 11.8426 5.55752C11.4805 5.46836 11.1006 5.48224 10.7459 5.59759C10.5166 4.71761 9.95365 3.96146 9.17645 3.48927C8.39926 3.01708 7.46879 2.86593 6.58209 3.06783C5.69539 3.26972 4.92209 3.80881 4.42594 4.57094C3.92979 5.33306 3.74975 6.25837 3.92395 7.15093C3.32434 7.34882 2.80241 7.73079 2.43244 8.24248C2.06247 8.75416 1.86331 9.3695 1.86328 10.0009Z" stroke="#A1A1A1" stroke-linecap="round" stroke-linejoin="round"/>
</svg>
