<svg width="17" height="16" viewBox="0 0 17 16" fill="none" xmlns="http://www.w3.org/2000/svg">
<path d="M1.86328 9.99995C1.86328 10.7956 2.17935 11.5587 2.74196 12.1213C3.30457 12.6839 4.06763 12.9999 4.86328 12.9999H12.3633C12.9485 13.0006 13.5154 12.7959 13.9652 12.4215C14.415 12.0472 14.7193 11.5269 14.8249 10.9513C14.9306 10.3757 14.8309 9.78125 14.5434 9.27155C14.2558 8.76185 13.7986 8.36918 13.2513 8.16195C13.375 7.8101 13.3979 7.43068 13.3173 7.06652C13.2367 6.70237 13.0559 6.368 12.7954 6.10118C12.5348 5.83435 12.2048 5.64571 11.8426 5.55655C11.4805 5.46739 11.1006 5.48127 10.7459 5.59662C10.5166 4.71663 9.95365 3.96048 9.17645 3.48829C8.39926 3.0161 7.46879 2.86495 6.58209 3.06685C5.69539 3.26875 4.92209 3.80784 4.42594 4.56996C3.92979 5.33208 3.74975 6.2574 3.92395 7.14995C3.32434 7.34785 2.80241 7.72982 2.43244 8.2415C2.06247 8.75319 1.86331 9.36852 1.86328 9.99995Z" stroke="#171717" stroke-linecap="round" stroke-linejoin="round"/>
</svg>
