<svg width="21" height="21" viewBox="0 0 21 21" fill="none" xmlns="http://www.w3.org/2000/svg">
<path d="M18.8993 15.4543L12.0672 3.5895C11.8965 3.29882 11.6528 3.0578 11.3602 2.89033C11.0676 2.72287 10.7364 2.63477 10.3993 2.63477C10.0622 2.63477 9.73091 2.72287 9.43833 2.89033C9.14576 3.0578 8.90203 3.29882 8.73131 3.5895L1.89928 15.4543C1.73501 15.7355 1.64844 16.0553 1.64844 16.3809C1.64844 16.7065 1.73501 17.0263 1.89928 17.3075C2.06781 17.5999 2.31113 17.8422 2.60425 18.0096C2.89736 18.177 3.22973 18.2633 3.56724 18.2598H17.2313C17.5686 18.263 17.9006 18.1766 18.1934 18.0092C18.4862 17.8419 18.7293 17.5997 18.8977 17.3075C19.0622 17.0265 19.1491 16.7068 19.1493 16.3811C19.1496 16.0555 19.0633 15.7356 18.8993 15.4543ZM17.8157 16.6817C17.7561 16.7833 17.6706 16.8672 17.5679 16.9249C17.4652 16.9825 17.3491 17.0119 17.2313 17.0098H3.56724C3.44949 17.0119 3.33332 16.9825 3.23063 16.9249C3.12794 16.8672 3.04243 16.7833 2.98287 16.6817C2.92892 16.5904 2.90046 16.4862 2.90046 16.3801C2.90046 16.274 2.92892 16.1699 2.98287 16.0786L9.8149 4.21372C9.87566 4.11261 9.96156 4.02894 10.0642 3.97085C10.1669 3.91276 10.2829 3.88223 10.4008 3.88223C10.5188 3.88223 10.6348 3.91276 10.7374 3.97085C10.8401 4.02894 10.926 4.11261 10.9868 4.21372L17.8188 16.0786C17.8723 16.1702 17.9002 16.2745 17.8997 16.3806C17.8991 16.4866 17.8701 16.5906 17.8157 16.6817ZM9.77428 12.0098V8.88482C9.77428 8.71906 9.84012 8.56009 9.95733 8.44288C10.0745 8.32566 10.2335 8.25982 10.3993 8.25982C10.565 8.25982 10.724 8.32566 10.8412 8.44288C10.9584 8.56009 11.0243 8.71906 11.0243 8.88482V12.0098C11.0243 12.1756 10.9584 12.3345 10.8412 12.4518C10.724 12.569 10.565 12.6348 10.3993 12.6348C10.2335 12.6348 10.0745 12.569 9.95733 12.4518C9.84012 12.3345 9.77428 12.1756 9.77428 12.0098ZM11.3368 14.8223C11.3368 15.0077 11.2818 15.189 11.1788 15.3432C11.0758 15.4973 10.9293 15.6175 10.758 15.6885C10.5867 15.7594 10.3982 15.778 10.2164 15.7418C10.0345 15.7056 9.86747 15.6163 9.73636 15.4852C9.60525 15.3541 9.51596 15.1871 9.47979 15.0052C9.44362 14.8234 9.46218 14.6349 9.53314 14.4636C9.6041 14.2922 9.72426 14.1458 9.87843 14.0428C10.0326 13.9398 10.2139 13.8848 10.3993 13.8848C10.6479 13.8848 10.8864 13.9836 11.0622 14.1594C11.238 14.3352 11.3368 14.5737 11.3368 14.8223Z" fill="#FB2C36"/>
</svg>
