<svg width="17" height="16" viewBox="0 0 17 16" fill="none" xmlns="http://www.w3.org/2000/svg">
<path d="M10.9993 4C10.9993 4.66304 10.7359 5.29893 10.2671 5.76777C9.79826 6.23661 9.16237 6.5 8.49933 6.5C7.83629 6.5 7.20041 6.23661 6.73157 5.76777C6.26273 5.29893 5.99933 4.66304 5.99933 4C5.99933 3.33696 6.26273 2.70107 6.73157 2.23223C7.20041 1.76339 7.83629 1.5 8.49933 1.5C9.16237 1.5 9.79826 1.76339 10.2671 2.23223C10.7359 2.70107 10.9993 3.33696 10.9993 4ZM3.5 13.412C3.52142 12.1002 4.05756 10.8494 4.99278 9.92936C5.92801 9.00929 7.18739 8.49365 8.49933 8.49365C9.81127 8.49365 11.0707 9.00929 12.0059 9.92936C12.9411 10.8494 13.4772 12.1002 13.4987 13.412C11.9303 14.1312 10.2248 14.5023 8.49933 14.5C6.71533 14.5 5.022 14.1107 3.5 13.412Z" stroke="#737373" stroke-linecap="round" stroke-linejoin="round"/>
</svg>
